<svg width="0" height="0" class="hidden">
  <symbol id="t" xmlns="http://www.w3.org/2000/svg" viewBox="0 0 512 512">
    <title></title>
    <path d="M256,0C114.615,0,0,114.615,0,256S114.615,512,256,512,512,397.385,512,256,397.385,0,256,0ZM389.059,161.936,343.591,379a16.007,16.007,0,0,1-25.177,9.593l-66.136-48.861-40.068,37.8a5.429,5.429,0,0,1-7.74-.294l-.861-.946,6.962-67.375L336.055,194.266a3.358,3.358,0,0,0-4.061-5.317L171.515,290.519,102.4,267.307a9.393,9.393,0,0,1-.32-17.694L372.5,147.744A12.441,12.441,0,0,1,389.059,161.936Z"></path>
  </symbol>
    <symbol xmlns="http://www.w3.org/2000/svg" focusable="false" viewBox="0 0 12 12" id="fb">
    <path fill="" d="M6 0a6 6 0 01.813 11.945V7.63h1.552l.244-1.585H6.812v-.867c0-.658.214-1.242.827-1.242h.985V2.55c-.173-.024-.538-.075-1.23-.075-1.444 0-2.29.767-2.29 2.513v1.055H3.618v1.585h1.484v4.304A6.001 6.001 0 016 0z"></path>
  </symbol>
     <symbol id="vk" xmlns="http://www.w3.org/2000/svg" viewBox="0 0 512 512">
    <title></title>
    <path d="M256,0C114.615,0,0,114.615,0,256S114.615,512,256,512,512,397.385,512,256,397.385,0,256,0ZM392.363,342.9H359.878a23.41,23.41,0,0,1-18.318-8.8c-9.742-12.231-28.934-33.918-49.085-43.233a7.666,7.666,0,0,0-10.916,6.928v32.128A12.974,12.974,0,0,1,268.585,342.9H253.564c-19.534,0-61.6-11.891-95.119-60.719-28.56-41.6-41.291-73.84-48.715-99.98a10.3,10.3,0,0,1,9.922-13.093h32.862a15.226,15.226,0,0,1,14.6,10.861c6.111,20.439,21.939,64.53,49.917,86.486a5.788,5.788,0,0,0,9.371-4.54V210.449c0-10.171-4.408-20.347-11.288-28.3a7.878,7.878,0,0,1,5.946-13.046h50.666a9.838,9.838,0,0,1,9.838,9.837v69.325a5.468,5.468,0,0,0,8.636,4.456c9.3-6.62,17.265-16.4,24.591-27.393,9.22-13.828,20.471-36.686,26.115-48.549A13.457,13.457,0,0,1,353.06,169.1H388.9a8.788,8.788,0,0,1,7.873,12.7c-9.044,18.14-26.659,51.418-43.235,70.942a13.877,13.877,0,0,0,1.623,19.54c10.805,9.232,27.673,26.3,45.859,54.729A10.305,10.305,0,0,1,392.363,342.9Z"></path>
  </symbol>
    <symbol xmlns="http://www.w3.org/2000/svg" viewBox="0 0 24 24" id="in">
    <path d="M14.829 6.302c-.738-.034-.96-.04-2.829-.04s-2.09.007-2.828.04c-1.899.087-2.783.986-2.87 2.87-.033.738-.041.959-.041 2.828s.008 2.09.041 2.829c.087 1.879.967 2.783 2.87 2.87.737.033.959.041 2.828.041 1.87 0 2.091-.007 2.829-.041 1.899-.086 2.782-.988 2.87-2.87.033-.738.04-.96.04-2.829s-.007-2.09-.04-2.828c-.088-1.883-.973-2.783-2.87-2.87zm-2.829 9.293c-1.985 0-3.595-1.609-3.595-3.595 0-1.985 1.61-3.594 3.595-3.594s3.595 1.609 3.595 3.594c0 1.985-1.61 3.595-3.595 3.595zm3.737-6.491c-.464 0-.84-.376-.84-.84 0-.464.376-.84.84-.84.464 0 .84.376.84.84 0 .463-.376.84-.84.84zm-1.404 2.896c0 1.289-1.045 2.333-2.333 2.333s-2.333-1.044-2.333-2.333c0-1.289 1.045-2.333 2.333-2.333s2.333 1.044 2.333 2.333zm-2.333-12c-6.627 0-12 5.373-12 12s5.373 12 12 12 12-5.373 12-12-5.373-12-12-12zm6.958 14.886c-.115 2.545-1.532 3.955-4.071 4.072-.747.034-.986.042-2.887.042s-2.139-.008-2.886-.042c-2.544-.117-3.955-1.529-4.072-4.072-.034-.746-.042-.985-.042-2.886 0-1.901.008-2.139.042-2.886.117-2.544 1.529-3.955 4.072-4.071.747-.035.985-.043 2.886-.043s2.14.008 2.887.043c2.545.117 3.957 1.532 4.071 4.071.034.747.042.985.042 2.886 0 1.901-.008 2.14-.042 2.886z"></path>
  </symbol>
</svg>